Coordinates
version=1
nRows=24
nColumns=33
inDegrees=yes

Units are S.I. units (second, meters, Newtons, ...)
Angles are in degrees.

endheader
time	ground_thorax_rot_x	ground_thorax_rot_y	ground_thorax_rot_z	ground_thorax_tx	ground_thorax_ty	ground_thorax_tz	clav_prot_r	clav_elev_r	scapula_abduction_r	scapula_elevation_r	scapula_upward_rot_r	scapula_winging_r	shoulder_elv_r	plane_of_elev_r	axial_rot_r	elbow_flexion_r	pro_sup_r	wrist_flex_r	wrist_dev_r	clav_prot_l	clav_elev_l	scapula_abduction_l	scapula_elevation_l	scapula_upward_rot_l	scapula_winging_l	shoulder_elv_l	plane_of_elev_l	axial_rot_l	elbow_flexion_l	pro_sup_l	wrist_flex_l	wrist_dev_l	
1.5400	1.114731	0.136106	0.381907	-0.156710	0.989921	0.003948	-8.705509	3.464462	-10.650565	7.309288	7.648305	-1.627886	45.274798	-47.359801	54.105250	73.951578	-9.313259	34.166435	-13.556781	-6.830364	2.225074	8.293226	-7.407330	1.554343	-0.043219	44.937312	-51.800063	-30.765444	78.915975	18.402595	-14.457408	-25.000000	
1.5500	0.966166	0.330226	0.324317	-0.156778	0.989962	0.003874	-8.983545	3.035194	-11.283465	7.119166	7.108229	-1.369875	45.315865	-47.272995	53.222173	73.881063	-7.890853	34.303065	-14.017106	-6.741872	2.220882	7.927574	-7.245486	1.952730	0.118155	44.339916	-51.916458	-30.674056	78.649195	17.163495	-15.416758	-25.000000	
1.5600	0.793579	0.527957	0.295042	-0.156859	0.989986	0.003805	-9.247564	2.610093	-11.917923	6.951595	6.521692	-1.099610	45.361387	-47.174224	52.296980	73.806116	-6.371366	34.472478	-14.488290	-6.634416	2.234471	7.519189	-7.089407	2.378384	0.295454	43.753446	-52.090840	-30.613719	78.406483	15.870100	-16.440302	-25.000000	
1.5700	0.702747	0.632083	0.255882	-0.156935	0.989990	0.003715	-9.460945	2.276906	-12.405783	6.806048	6.097409	-0.898453	45.404658	-47.092526	51.488393	73.799880	-5.449607	34.589534	-14.811699	-6.578353	2.143592	7.334862	-6.968489	2.473052	0.343650	43.354656	-52.068802	-30.376518	78.225399	15.147295	-17.354449	-25.000000	
1.5800	0.646046	0.680897	0.236186	-0.157011	0.989966	0.003615	-9.633219	2.007829	-12.803669	6.692546	5.744528	-0.732929	45.455741	-47.018664	50.734703	73.832925	-4.808474	34.696734	-15.041756	-6.542832	2.006114	7.260652	-6.875236	2.390228	0.325381	43.077463	-51.972400	-30.059867	78.094563	14.732294	-18.235422	-25.000000	
1.5900	0.618600	0.684025	0.212700	-0.157105	0.989929	0.003502	-9.758405	1.782620	-13.118602	6.611790	5.414644	-0.587691	45.532467	-46.930965	49.975859	73.899451	-4.336003	34.809764	-15.183652	-6.507613	1.817484	7.258121	-6.806656	2.127654	0.247191	42.912372	-51.796670	-29.652159	78.005286	14.578184	-19.188836	-25.000000	
1.6000	0.595999	0.659738	0.220405	-0.157205	0.989860	0.003385	-9.846685	1.599776	-13.379821	6.570080	5.087830	-0.453653	45.635604	-46.846674	49.235257	73.986710	-3.896743	34.928384	-15.252174	-6.467045	1.623497	7.284668	-6.766835	1.781197	0.143866	42.823467	-51.619464	-29.223217	77.950130	14.555584	-20.186954	-25.000000	
1.6100	0.566877	0.631961	0.241669	-0.157334	0.989777	0.003264	-9.896859	1.428401	-13.612181	6.568274	4.690578	-0.305861	45.789930	-46.748161	48.439578	74.086423	-3.298388	35.055605	-15.254828	-6.390291	1.432470	7.272543	-6.754054	1.375794	0.035333	42.783107	-51.454777	-28.784439	77.910021	14.562957	-21.368746	-24.999999	
1.6200	0.529022	0.596953	0.299692	-0.157463	0.989653	0.003142	-9.925699	1.287715	-13.818532	6.597221	4.289514	-0.163122	45.971167	-46.669827	47.693908	74.203416	-2.641168	35.154575	-15.190096	-6.304035	1.270858	7.255528	-6.772078	0.962206	-0.070678	42.782980	-51.331801	-28.375943	77.891884	14.601639	-22.556543	-24.999999	
1.6300	0.487576	0.559073	0.357074	-0.157592	0.989508	0.003014	-9.940441	1.158984	-14.003717	6.638445	3.886806	-0.023816	46.175644	-46.602968	46.984366	74.343793	-1.950635	35.210776	-15.066224	-6.211261	1.121853	7.236213	-6.807709	0.534456	-0.177873	42.818886	-51.225546	-27.971305	77.899621	14.671963	-23.734540	-24.999998	
1.6400	0.440679	0.516357	0.424791	-0.157694	0.989329	0.002882	-9.960700	1.057488	-14.169084	6.674426	3.560210	0.090521	46.364463	-46.575055	46.415513	74.504901	-1.370445	35.203537	-14.909509	-6.145329	1.002431	7.249488	-6.848849	0.160567	-0.275936	42.876773	-51.163147	-27.611808	77.943260	14.762765	-24.671442	-24.999997	
1.6500	0.398778	0.473756	0.460227	-0.157777	0.989165	0.002748	-9.982964	0.944421	-14.319139	6.689410	3.259367	0.197106	46.571145	-46.569675	45.903334	74.709974	-0.849131	35.104056	-14.693884	-6.091719	0.864830	7.285608	-6.880547	-0.231327	-0.384157	42.976132	-51.103949	-27.217100	78.032441	14.899999	-25.449642	-24.999996	
1.6600	0.360663	0.430874	0.469968	-0.157831	0.989013	0.002613	-10.017281	0.830360	-14.454636	6.675781	3.026917	0.284003	46.764926	-46.592201	45.499751	74.943792	-0.467132	34.926861	-14.457923	-6.068084	0.723245	7.359805	-6.896417	-0.593472	-0.493390	43.097323	-51.060171	-26.816786	78.164951	15.061592	-25.955037	-24.999992	
1.6700	0.326670	0.390261	0.445890	-0.157852	0.988883	0.002482	-10.063895	0.703173	-14.591585	6.637625	2.824231	0.364603	46.955078	-46.626150	45.135844	75.211208	-0.164791	34.695649	-14.210524	-6.067066	0.566301	7.469440	-6.898244	-0.956382	-0.611506	43.235508	-51.012809	-26.371471	78.341567	15.241161	-26.299830	-24.999986	
1.6800	0.291516	0.355990	0.412688	-0.157844	0.988747	0.002347	-10.125508	0.588645	-14.732031	6.588388	2.677187	0.429936	47.109653	-46.668170	44.847561	75.483428	0.030662	34.457097	-14.001053	-6.096699	0.428196	7.616025	-6.895383	-1.265361	-0.722997	43.359606	-50.972682	-25.936821	78.547029	15.401869	-26.464508	-24.999975	
1.6900	0.257487	0.328497	0.378852	-0.157818	0.988615	0.002215	-10.191125	0.477736	-14.878240	6.540156	2.535572	0.494346	47.260015	-46.708068	44.576580	75.768846	0.209179	34.201467	-13.806717	-6.136875	0.298293	7.784218	-6.900710	-1.575667	-0.838218	43.483369	-50.923015	-25.481046	78.774807	15.559307	-26.569385	-24.999956	
1.7000	0.222507	0.309378	0.351190	-0.157781	0.988466	0.002077	-10.264241	0.385357	-15.027785	6.494991	2.428513	0.548379	47.382279	-46.739105	44.357593	76.047635	0.334190	33.955177	-13.667533	-6.195842	0.197510	7.976584	-6.916052	-1.844578	-0.945905	43.583344	-50.862769	-25.043247	79.012923	15.686400	-26.564612	-24.999921	
1.7100	0.192788	0.290236	0.322320	-0.157732	0.988338	0.001939	-10.339081	0.287499	-15.177240	6.443787	2.323623	0.602671	47.523629	-46.757968	44.168923	76.352070	0.434789	33.629790	-13.552206	-6.263559	0.093726	8.200886	-6.947202	-2.158720	-1.069735	43.697861	-50.756672	-24.543396	79.266330	15.824801	-26.393751	-24.999858	
1.7200	0.170009	0.277884	0.289872	-0.157690	0.988223	0.001789	-10.408370	0.186548	-15.314684	6.389299	2.220210	0.655343	47.684369	-46.760358	44.013026	76.670161	0.518447	33.238239	-13.458247	-6.333197	-0.014380	8.440232	-6.988877	-2.508243	-1.204274	43.824591	-50.604025	-24.003576	79.537584	15.973949	-26.073414	-24.999746	
1.7300	0.159639	0.268992	0.248994	-0.157661	0.988150	0.001641	-10.462821	0.065798	-15.432702	6.329015	2.086653	0.715522	47.895443	-46.745037	43.856969	77.017816	0.633005	32.751584	-13.346272	-6.388240	-0.152496	8.677077	-7.036968	-2.940815	-1.359153	43.990578	-50.401001	-23.394829	79.826449	16.165378	-25.634784	-24.999545	
1.7400	0.154406	0.271928	0.212240	-0.157643	0.988089	0.001493	-10.508307	-0.052214	-15.535352	6.271444	1.953428	0.773290	48.112428	-46.713917	43.711657	77.361116	0.761781	32.267066	-13.244468	-6.436178	-0.292630	8.896514	-7.080417	-3.366528	-1.509139	44.158055	-50.186636	-22.802478	80.123646	16.358470	-25.145788	-24.999185	
1.7500	0.157619	0.278775	0.176281	-0.157622	0.988044	0.001352	-10.545680	-0.175880	-15.629700	6.215844	1.802783	0.835315	48.364984	-46.659569	43.570165	77.726513	0.936502	31.735734	-13.154273	-6.475308	-0.447767	9.108234	-7.125611	-3.829705	-1.666829	44.349792	-49.944739	-22.173318	80.441498	16.575299	-24.495895	-24.998539	
1.7600	0.159121	0.298417	0.146601	-0.157579	0.987981	0.001211	-10.583327	-0.286029	-15.722418	6.166917	1.666668	0.892201	48.603009	-46.587281	43.436954	78.080890	1.129519	31.253111	-13.096723	-6.516890	-0.590540	9.304072	-7.160092	-4.238571	-1.808064	44.526163	-49.712016	-21.584095	80.776873	16.772147	-23.786339	-24.997384	
1.7700	0.158280	0.325814	0.118008	-0.157507	0.987913	0.001081	-10.621571	-0.388438	-15.812037	6.119222	1.545130	0.944569	48.823186	-46.496394	43.307319	78.427643	1.334159	30.813446	-13.066428	-6.560581	-0.723979	9.484666	-7.182872	-4.597572	-1.934247	44.687354	-49.484293	-21.026511	81.121330	16.947470	-23.029717	-24.995314	
